<svg xmlns="http://www.w3.org/2000/svg" xmlns:xlink="http://www.w3.org/1999/xlink" preserveAspectRatio="xMidYMid" width="1280" height="1280" viewBox="0 0 1280 1280">
  <defs>
    <style>
      .cls-1 {
        fill: #1b4079;
      }

      .cls-1, .cls-2, .cls-3, .cls-4, .cls-5 {
        fill-rule: evenodd;
      }

      .cls-2 {
        fill: #070707;
      }

      .cls-3 {
        fill: #191919;
      }

      .cls-4 {
        fill: #303030;
      }

      .cls-5 {
        fill: #1e1e1e;
      }
    </style>
  </defs>
  <path d="M1240.000,588.000 C1225.358,534.800 1207.101,497.169 1158.000,465.000 C1108.899,432.831 831.042,282.176 749.000,235.000 C672.038,196.289 611.000,227.000 611.000,227.000 L362.000,348.000 L356.000,398.000 C356.000,398.000 310.742,415.396 256.000,435.000 C201.258,454.604 210.000,529.000 210.000,529.000 L218.000,573.000 C218.000,573.000 121.635,626.296 81.000,650.000 C44.436,671.329 32.854,693.766 12.985,727.358 C9.043,698.802 7.000,669.640 7.000,640.000 C7.000,290.404 290.404,7.000 640.000,7.000 C989.596,7.000 1273.000,290.404 1273.000,640.000 C1273.000,680.091 1269.263,719.308 1262.136,757.330 C1256.773,716.058 1249.599,661.125 1240.000,588.000 ZM296.000,1084.000 C340.021,1092.466 375.000,1090.000 375.000,1090.000 C375.000,1090.000 766.390,1080.352 818.000,1076.000 C869.610,1071.648 970.286,1049.624 1016.000,1031.000 C1044.289,1019.475 1137.884,965.162 1205.137,925.426 C1100.785,1131.632 886.906,1273.000 640.000,1273.000 C422.459,1273.000 230.556,1163.256 116.613,996.117 C173.995,1028.287 266.403,1078.308 296.000,1084.000 Z" class="cls-1"/>
  <g>
    <path d="M503.000,399.000 C503.000,399.000 389.459,440.809 365.000,451.000 C345.637,458.134 265.551,472.782 283.000,562.000 C300.449,651.218 313.497,718.292 327.000,737.000 C340.503,755.707 410.313,772.946 459.000,780.000 C507.687,787.054 711.000,808.000 711.000,808.000 C711.000,808.000 981.243,781.820 981.000,713.000 C980.757,644.180 503.000,399.000 503.000,399.000 Z" class="cls-2"/>
    <path d="M80.000,853.000 C91.718,905.511 252.877,980.030 324.000,1009.000 C332.868,1012.607 349.992,1013.611 358.000,1014.000 C514.180,1002.109 784.254,998.361 817.000,1002.000 C843.197,996.906 889.543,988.688 897.000,984.000 C904.457,979.312 999.000,937.000 999.000,937.000 L954.000,814.000 C954.000,814.000 856.445,855.069 850.000,859.000 C841.663,863.462 830.561,880.189 823.000,889.000 C820.655,891.581 813.621,892.903 809.308,891.425 C749.922,895.074 651.527,898.046 558.000,897.000 C500.338,900.314 423.005,901.736 378.000,907.000 C346.697,903.546 285.000,873.000 285.000,873.000 L181.000,801.000 C181.000,801.000 193.988,794.184 80.000,853.000 Z" class="cls-3"/>
    <path d="M1020.000,698.000 C997.457,697.926 960.169,754.012 938.000,773.000 C914.703,793.058 913.769,851.392 930.000,933.000 C946.231,1014.608 1067.000,910.000 1067.000,910.000 C1067.000,910.000 1042.543,698.074 1020.000,698.000 Z" class="cls-2"/>
    <path d="M1166.000,881.000 C1106.258,917.064 1033.000,962.000 1033.000,962.000 C1033.000,962.000 1027.981,961.640 1024.000,954.000 C1020.019,946.360 1009.000,919.000 1009.000,919.000 C1009.000,919.000 976.984,862.379 954.000,842.000 C953.688,841.992 996.528,823.891 979.000,784.000 C961.472,744.109 893.357,750.296 834.000,770.000 C744.617,756.341 521.000,721.000 521.000,721.000 C521.000,721.000 420.791,709.815 412.000,643.000 C403.209,576.185 395.911,512.341 394.000,497.000 C392.089,481.659 391.885,469.695 407.000,464.000 C408.770,444.960 415.000,399.000 415.000,399.000 C415.000,399.000 412.540,389.765 424.000,384.000 C435.460,378.235 619.000,281.000 619.000,281.000 C619.000,281.000 619.052,280.974 619.139,280.930 C634.052,273.341 648.549,268.135 664.683,266.637 C670.316,265.938 675.955,265.769 681.280,266.416 C694.016,267.222 707.985,270.234 724.000,276.000 C738.484,283.242 1115.000,504.000 1115.000,504.000 C1115.000,504.000 1173.419,534.871 1185.000,615.000 C1196.581,695.129 1207.000,775.000 1207.000,775.000 C1207.000,775.000 1225.742,844.935 1166.000,881.000 Z" class="cls-4"/>
    <path d="M82.000,857.000 L292.000,743.000 C292.000,743.000 458.743,653.164 464.000,652.000 C467.730,650.280 468.478,648.166 468.000,645.000 C466.411,639.613 446.000,534.000 446.000,534.000 C446.000,534.000 444.184,518.035 431.000,525.000 C417.815,531.965 207.000,629.000 207.000,629.000 C207.000,629.000 67.769,702.021 72.000,756.000 C69.675,798.913 69.083,847.159 82.000,857.000 Z" class="cls-5"/>
    <path d="M1100.000,519.000 C1100.000,519.000 1157.951,545.421 1165.000,608.000 C1178.120,712.813 1165.225,608.758 1186.885,777.521 C1187.543,788.051 1182.323,804.409 1173.000,801.000 C732.388,608.957 732.344,608.850 732.344,608.850 C732.344,608.850 691.222,599.740 692.000,556.000 C679.772,326.958 681.569,342.785 680.000,325.000 C677.385,287.338 699.952,296.006 715.000,300.000 C1102.479,521.042 1100.000,519.000 1100.000,519.000 Z" class="cls-2"/>
  </g>
</svg>
